<?xml version="1.0" encoding="UTF-8"?>
<svg version="1.1" xmlns="http://www.w3.org/2000/svg" width="512" height="512">
<path d="M0 0 C8.55382437 6.42934512 14.03631899 14.90327877 16.08203125 25.3671875 C16.92157756 31.97728632 16.52068622 38.25717408 15.390625 44.796875 C16.11314453 45.20824707 16.83566406 45.61961914 17.58007812 46.04345703 C30.21514183 53.24097358 42.84241063 60.44860991 55.390625 67.796875 C64.02558595 72.85321432 72.69676753 77.84280516 81.390625 82.796875 C92.12159406 88.91299225 102.81432868 95.09109715 113.46875 101.33984375 C117.6095967 103.76596944 121.76776067 106.15904519 125.9375 108.53515625 C127.01741211 109.15438965 128.09732422 109.77362305 129.20996094 110.41162109 C131.26118558 111.58712333 133.31626488 112.75593689 135.37597656 113.91650391 C142.97629466 118.28898397 150.33042275 123.0032248 154.765625 130.796875 C155.45785156 131.9725 155.45785156 131.9725 156.1640625 133.171875 C158.66975017 138.53436581 159.64024161 143.59359913 159.6690979 149.48509216 C159.68584312 151.44319572 159.68584312 151.44319572 159.70292664 153.44085693 C159.70529108 154.86999483 159.70746682 156.29913304 159.70947266 157.72827148 C159.71877964 159.24653146 159.72894945 160.76478636 159.73991394 162.28303528 C159.76714128 166.38991705 159.78234173 170.49676466 159.79534197 174.6037128 C159.81100439 178.90121791 159.83778467 183.1986536 159.8633728 187.49610901 C159.91010557 195.6273558 159.94687627 203.75861573 159.98004568 211.88992792 C160.01830598 221.14993287 160.06770589 230.40986797 160.11802983 239.66981399 C160.22126784 258.71211651 160.31055463 277.75446168 160.390625 296.796875 C161.35411865 297.26230713 162.3176123 297.72773926 163.31030273 298.20727539 C164.58592374 298.83188981 165.8613875 299.45682544 167.13671875 300.08203125 C167.77041382 300.38709595 168.40410889 300.69216064 169.05700684 301.00646973 C178.58617289 305.70123633 184.65959347 313.40452363 188.203125 323.359375 C191.12996561 334.21377248 190.51358492 346.23811515 185.1015625 356.16015625 C178.79773701 366.18896953 170.65867981 373.31141927 158.97265625 376.4453125 C146.10973487 378.19669363 135.00880995 376.89271759 124.3984375 369.19921875 C121.55637971 367.18738294 121.55637971 367.18738294 118.390625 365.796875 C115.78731631 366.65840613 115.78731631 366.65840613 113.12890625 368.3125 C112.101604 368.89894287 111.07430176 369.48538574 110.01586914 370.08959961 C108.92266357 370.73550049 107.82945801 371.38140137 106.703125 372.046875 C105.57189209 372.69857666 104.44065918 373.35027832 103.27514648 374.02172852 C99.97057535 375.93064442 96.67900515 377.86023387 93.390625 379.796875 C91.88565686 380.67619248 90.38048468 381.55516094 88.875 382.43359375 C86.21874468 383.98872116 83.56900906 385.55440488 80.921875 387.125 C75.29194645 390.45689408 69.6214333 393.71835173 63.953125 396.984375 C62.84590088 397.62238037 61.73867676 398.26038574 60.59790039 398.91772461 C58.32725432 400.22576977 56.05650142 401.53362948 53.78564453 402.84130859 C49.39482289 405.37046733 45.00572819 407.9026116 40.61694336 410.43530273 C38.47089253 411.67356513 36.32457204 412.91136027 34.17797852 414.14868164 C29.14999778 417.04731692 24.12413937 419.94943478 19.10620117 422.86541748 C17.34087289 423.89103128 15.57484029 424.91542164 13.80859375 425.93945312 C11.6014618 427.21958966 9.39563577 428.50198166 7.19140625 429.78710938 C-18.04551048 444.40901055 -18.04551048 444.40901055 -31.83691406 441.29370117 C-38.31045907 439.51822694 -43.90900822 436.77606204 -49.734375 433.484375 C-50.67958008 432.95948486 -51.62478516 432.43459473 -52.59863281 431.89379883 C-61.60827444 426.86270006 -70.51719666 421.65684577 -79.4140625 416.4296875 C-85.7519295 412.70661806 -92.115203 409.02857191 -98.484375 405.359375 C-99.56428711 404.73699951 -100.64419922 404.11462402 -101.75683594 403.47338867 C-103.94684049 402.21141565 -106.13694484 400.94961581 -108.32714844 399.68798828 C-113.75597439 396.56007353 -119.18258864 393.42832657 -124.609375 390.296875 C-130.74649187 386.75567297 -136.88375261 383.2147239 -143.0227356 379.67675781 C-145.41364097 378.29880562 -147.80436172 376.92053328 -150.19506836 375.54223633 C-151.87921463 374.57146518 -153.56362731 373.60115626 -155.24804688 372.63085938 C-156.27091797 372.04111328 -157.29378906 371.45136719 -158.34765625 370.84375 C-159.24524658 370.32651367 -160.14283691 369.80927734 -161.06762695 369.27636719 C-162.83789559 368.24593515 -164.58347073 367.17238913 -166.30786133 366.06689453 C-167.06736084 365.64778809 -167.82686035 365.22868164 -168.609375 364.796875 C-171.64900233 365.71900913 -173.80144469 367.67376628 -176.234375 369.671875 C-185.33755081 376.56668779 -195.26809503 378.65101453 -206.484375 377.234375 C-216.33355519 375.35592311 -226.37454128 370.52581672 -232.4140625 362.35546875 C-240.26724068 350.64087309 -242.64755091 339.30318652 -239.953125 325.4140625 C-236.83037318 314.88823525 -229.98929949 306.27651788 -220.6015625 300.578125 C-216.58175617 298.43830414 -213.12856704 297.50937928 -208.609375 296.796875 C-208.61306217 296.03064473 -208.61674934 295.26441446 -208.62054825 294.4749651 C-208.70908831 275.78554033 -208.77517628 257.09615771 -208.81662369 238.40656757 C-208.83720282 229.36821752 -208.86523393 220.33000792 -208.91113281 211.29174805 C-208.95114358 203.4091649 -208.97684156 195.52668354 -208.98572898 187.64400166 C-208.99091976 183.47452287 -209.0030216 179.30533512 -209.03229523 175.13595009 C-209.05969013 171.20182392 -209.06777211 167.26810532 -209.06180573 163.33389282 C-209.06289531 161.89931705 -209.07070486 160.46472592 -209.0861969 159.03023338 C-209.2157157 146.40519453 -207.64446592 134.25192542 -198.609375 124.796875 C-192.41855052 118.57132333 -185.2418378 114.45639075 -177.609375 110.234375 C-175.72381206 109.17696438 -173.84018946 108.11614834 -171.95654297 107.05532837 C-170.68275475 106.33837467 -169.40833905 105.62253464 -168.13330078 104.9078064 C-162.2502577 101.60827822 -156.42541212 98.21300979 -150.609375 94.796875 C-141.97514815 89.73929283 -133.30314006 84.75107857 -124.609375 79.796875 C-109.90038068 71.4372203 -109.90038068 71.4372203 -95.31835938 62.85961914 C-90.37783083 59.90624199 -85.44763797 57.20210327 -80.2265625 54.7734375 C-70.18939106 50.49194722 -70.18939106 50.49194722 -63.75341797 42.375 C-63.05885736 36.90748356 -63.78436098 31.61113289 -64.45214844 26.17285156 C-64.96666099 18.39764009 -60.12664515 12.07413751 -55.359375 6.421875 C-40.00298036 -9.39140411 -18.74678426 -11.90833466 0 0 Z M-55.609375 59.796875 C-69.0160718 67.43008127 -82.41731259 75.07048902 -95.734375 82.859375 C-111.27214844 91.94672772 -126.85500774 100.95559835 -142.49565125 109.86480713 C-147.75537998 112.86105184 -153.00915938 115.86754742 -158.26025391 118.87890625 C-160.4715579 120.14527191 -162.68474181 121.40836122 -164.89990234 122.66796875 C-167.95557905 124.40792243 -171.00217845 126.1627967 -174.046875 127.921875 C-174.94631836 128.42992676 -175.84576172 128.93797852 -176.77246094 129.46142578 C-183.73396651 133.51668484 -188.16990474 137.38662412 -190.99207497 145.2305603 C-192.34114524 150.83907914 -191.99641294 156.64782115 -191.94995117 162.3828125 C-191.94910384 163.85195396 -191.9495821 165.3210967 -191.95127869 166.79023743 C-191.95213595 170.75875808 -191.93455416 174.72700417 -191.91355681 178.69546127 C-191.89474484 182.85010113 -191.89303602 187.00474796 -191.88948059 191.15942383 C-191.88017337 199.01802095 -191.85557758 206.87649218 -191.82543212 214.73503399 C-191.79184684 223.68545465 -191.77539174 232.63588146 -191.76034582 241.58634949 C-191.72902678 259.98992924 -191.67629213 278.39339198 -191.609375 296.796875 C-190.39374878 297.28389893 -190.39374878 297.28389893 -189.15356445 297.78076172 C-188.08323975 298.21662598 -187.01291504 298.65249023 -185.91015625 299.1015625 C-184.85223877 299.52937012 -183.79432129 299.95717773 -182.7043457 300.39794922 C-172.76371199 304.89111252 -166.5510226 312.47939574 -162.51171875 322.52734375 C-159.7936283 331.28844459 -160.06422846 339.84415972 -161.609375 348.796875 C-160.95791504 349.17271729 -160.30645508 349.54855957 -159.63525391 349.93579102 C-77.109375 397.546875 -77.109375 397.546875 -73.85546875 399.42529297 C-71.70316684 400.66623358 -69.5495332 401.90486748 -67.39453125 403.14111328 C-62.34514439 406.04145049 -57.31177425 408.96204779 -52.32495117 411.96856689 C-50.56243567 413.02969416 -48.79563411 414.08329477 -47.02734375 415.13476562 C-44.8127605 416.45465724 -42.60639718 417.7884798 -40.41015625 419.13867188 C-33.4682625 423.24958847 -27.36234612 426.22362127 -19.22705078 424.20605469 C-11.90483099 421.52866974 -5.1974408 417.33600595 1.515625 413.421875 C2.75473638 412.70592619 3.9941626 411.99052204 5.23388672 411.27563477 C8.9580942 409.12510857 12.67490816 406.96202812 16.390625 404.796875 C17.4528125 404.17893066 18.515 403.56098633 19.609375 402.92431641 C24.54510829 400.05176416 29.47683274 397.17243732 34.40625 394.2890625 C40.67960298 390.62305893 46.97070119 386.98818576 53.265625 383.359375 C54.33949463 382.74030273 55.41336426 382.12123047 56.51977539 381.48339844 C60.94412996 378.93364704 65.36915087 376.38505419 69.79443359 373.83691406 C76.35175339 370.06072162 82.90671756 366.28052179 89.45703125 362.4921875 C91.35709872 361.39414584 93.25808323 360.29768888 95.16015625 359.203125 C97.59408667 357.8018817 100.02416265 356.39420699 102.453125 354.984375 C103.15574463 354.58178467 103.85836426 354.17919434 104.58227539 353.7644043 C108.075571 351.88011987 108.075571 351.88011987 110.390625 348.796875 C110.18373047 347.97703125 110.18373047 347.97703125 109.97265625 347.140625 C107.52308262 337.27657011 108.94441364 325.80733873 113.390625 316.796875 C120.17068422 305.69130965 129.93348805 299.83252397 142.390625 296.796875 C142.50751383 277.11677001 142.59564035 257.43673563 142.64968586 237.75635529 C142.67544904 228.61805098 142.7105634 219.47996259 142.76782227 210.34179688 C142.81771511 202.3753938 142.84992973 194.40914712 142.86106747 186.44259214 C142.86757633 182.22569636 142.88283419 178.00924791 142.91927528 173.79249573 C142.95332805 169.81974991 142.96365949 165.84763376 142.95616341 161.87475586 C142.95753384 160.42032952 142.96741157 158.96588113 142.98665237 157.51158142 C143.10510468 148.09286396 142.41294222 142.00320368 135.78897572 135.13654327 C130.9186166 130.46994619 124.83679132 127.4811857 118.953125 124.296875 C116.70211541 123.05782195 114.45214009 121.81688835 112.203125 120.57421875 C111.06488281 119.94628418 109.92664063 119.31834961 108.75390625 118.67138672 C103.61161949 115.8053532 98.52997838 112.83936829 93.453125 109.859375 C91.46232732 108.69255862 89.47144112 107.52589328 87.48046875 106.359375 C86.4838623 105.77542969 85.48725586 105.19148438 84.46044922 104.58984375 C79.15735188 101.49250425 73.83662354 98.42582787 68.515625 95.359375 C67.43837158 94.73828857 66.36111816 94.11720215 65.2512207 93.47729492 C59.7497715 90.30636345 54.24648619 87.13863833 48.7421875 83.97265625 C34.90240901 76.00714015 21.11662333 67.95698309 7.390625 59.796875 C6.84720459 60.20462158 6.30378418 60.61236816 5.74389648 61.0324707 C5.02790283 61.56960693 4.31190918 62.10674316 3.57421875 62.66015625 C2.86579834 63.19165283 2.15737793 63.72314941 1.42749023 64.27075195 C-9.3102085 72.31598206 -19.35012021 74.19513543 -32.609375 72.796875 C-41.4481881 70.90284362 -49.29986487 66.22335168 -55.609375 59.796875 Z " fill="#D35DFF" transform="translate(280.609375,24.203125)"/>
<path d="M0 0 C4.38365419 0.66904998 7.89454252 1.65776037 11.92578125 3.52734375 C13.09326904 4.06278809 14.26075684 4.59823242 15.46362305 5.14990234 C16.08731781 5.43967957 16.71101257 5.72945679 17.35360718 6.02801514 C20.80384476 7.62990924 24.26581263 9.20613474 27.7265625 10.78515625 C28.46796982 11.12405884 29.20937714 11.46296143 29.97325134 11.81213379 C39.77663657 16.2832479 49.6549415 20.5843357 59.5284729 24.89767456 C77.72387412 32.84745938 95.85404279 40.93513013 114 49 C114 93.22 114 137.44 114 183 C102.74956941 179.62487082 102.74956941 179.62487082 98.31469727 177.9855957 C97.31160019 177.61647568 96.30850311 177.24735565 95.27500916 176.86705017 C94.2161702 176.47393143 93.15733124 176.08081268 92.06640625 175.67578125 C90.93050552 175.25684097 89.7946048 174.8379007 88.62428284 174.40626526 C85.56709134 173.27790153 82.51091773 172.14684115 79.45536041 171.01406097 C76.27592035 169.83564811 73.09565365 168.65946953 69.91552734 167.48291016 C66.04428638 166.05044449 62.17324723 164.61743958 58.30285645 163.18267822 C51.18295952 160.54385017 44.05854179 157.91782963 36.92729187 155.30979919 C32.9228982 153.84467372 28.92081964 152.37329751 24.91915894 150.90072632 C23.06400969 150.21970729 21.20783305 149.54148016 19.35061646 148.86611938 C16.79598453 147.93656385 14.24529234 146.99691527 11.6953125 146.0546875 C10.95116592 145.78684952 10.20701935 145.51901154 9.44032288 145.24305725 C3.07341929 142.86908809 3.07341929 142.86908809 1 140 C-0.04186458 136.87440627 -0.12325415 134.71678642 -0.12025452 131.43818665 C-0.12162918 130.28132355 -0.12300385 129.12446045 -0.12442017 127.93254089 C-0.12082489 126.66227554 -0.11722961 125.39201019 -0.11352539 124.08325195 C-0.11324334 122.73307294 -0.1134016 121.38289377 -0.1139679 120.03271484 C-0.11425517 116.36564067 -0.10836971 112.69859911 -0.10139394 109.03153253 C-0.09514878 105.19983094 -0.09455568 101.36812862 -0.09336853 97.53642273 C-0.09025865 90.27978372 -0.08204987 83.02315974 -0.07201904 75.76652735 C-0.06084727 67.50543203 -0.05534477 59.244336 -0.05032361 50.983235 C-0.03986698 33.98881463 -0.02227416 16.9944089 0 0 Z " fill="#E067FF" transform="translate(135,199)"/>
<path d="M0 0 C0.09340641 18.05422438 0.16396101 36.10838612 0.20724869 54.16279984 C0.2278814 62.54562707 0.2560154 70.92830424 0.30175781 79.31103516 C0.34160405 86.61671286 0.36742766 93.9222819 0.37635398 101.22806525 C0.38157254 105.09712915 0.39385233 108.96588216 0.42292023 112.8348465 C0.45005465 116.47593643 0.45844918 120.11658719 0.45243073 123.75776863 C0.45405722 125.73230207 0.4755904 127.70678759 0.49768066 129.68119812 C0.49218201 130.85626419 0.48668335 132.03133026 0.48101807 133.24200439 C0.48470524 134.26335102 0.48839241 135.28469765 0.49219131 136.33699417 C-0.13245273 139.71663677 -1.36608748 140.86510835 -4 143 C-6.29101563 144.16235352 -6.29101563 144.16235352 -8.90625 145.12890625 C-9.93379395 145.5144165 -10.96133789 145.89992676 -12.02001953 146.29711914 C-13.16841309 146.71469482 -14.31680664 147.13227051 -15.5 147.5625 C-16.72960449 148.01939209 -17.95920898 148.47628418 -19.22607422 148.94702148 C-22.92761247 150.32045095 -26.6352218 151.67685232 -30.34411621 153.03027344 C-33.2383457 154.0870257 -36.13145699 155.14680071 -39.02441406 156.20703125 C-49.1245898 159.90785973 -59.22749671 163.60109642 -69.3344574 167.28335571 C-81.2245988 171.61538501 -93.10342418 175.97536525 -104.95556641 180.41040039 C-105.90222168 180.76352295 -106.84887695 181.11664551 -107.82421875 181.48046875 C-108.61916748 181.77848389 -109.41411621 182.07649902 -110.2331543 182.38354492 C-112 183 -112 183 -113 183 C-113 138.78 -113 94.56 -113 49 C-77.84019814 33.12137981 -77.84019814 33.12137981 -61.9375 26.1875 C-51.28259094 21.53433343 -40.64104403 16.85565222 -30.04296875 12.07421875 C-29.16074142 11.67673935 -28.2785141 11.27925995 -27.36955261 10.86973572 C-23.14012234 8.9635354 -18.91354417 7.05140021 -14.69116211 5.12963867 C-13.18222583 4.44819029 -11.67319782 3.76694498 -10.1640625 3.0859375 C-9.47857834 2.77126022 -8.79309418 2.45658295 -8.08683777 2.13237 C-5.20361103 0.83704668 -3.20025895 0 0 0 Z " fill="#C652FF" transform="translate(377,199)"/>
<path d="M0 0 C0.7019751 0.31284439 1.4039502 0.62568878 2.12719727 0.94801331 C4.4235606 1.97464259 6.71374535 3.01430427 9.00390625 4.0546875 C10.61770324 4.78018596 12.23172022 5.50519524 13.84594727 6.22973633 C25.59793726 11.51989121 37.27557607 16.96583591 48.92822266 22.47070312 C61.35908708 28.33820482 73.89566178 33.95486128 86.45556641 39.54003906 C91.17005358 41.64605547 95.86957937 43.78462417 100.56640625 45.9296875 C100.56640625 46.5896875 100.56640625 47.2496875 100.56640625 47.9296875 C78.51005987 57.90717655 56.4261572 67.81470109 34.2331543 77.48510742 C26.38211695 80.91003379 18.55489241 84.36984257 10.7890625 87.984375 C9.43978165 88.60784867 8.09041893 89.23114519 6.7409668 89.85424805 C4.28592048 90.98839947 1.84461842 92.14282475 -0.59448242 93.31176758 C-1.66802979 93.80829834 -2.74157715 94.3048291 -3.84765625 94.81640625 C-5.2236499 95.46935669 -5.2236499 95.46935669 -6.62744141 96.13549805 C-13.17688188 97.98910252 -18.93246553 95.12146254 -24.8203125 92.45703125 C-25.62242157 92.10248367 -26.42453064 91.7479361 -27.25094604 91.38264465 C-29.8780606 90.21903188 -32.49950025 89.04317953 -35.12109375 87.8671875 C-36.96375615 87.0483539 -38.80677889 86.23033076 -40.65014648 85.41308594 C-45.35088584 83.32677993 -50.04718334 81.23067685 -54.74230957 79.1317749 C-58.83225517 77.30496222 -62.92574074 75.4861451 -67.01953125 73.66796875 C-68.53329501 72.99554773 -70.04704839 72.32310335 -71.56079102 71.65063477 C-72.29580841 71.32410919 -73.03082581 70.99758362 -73.78811646 70.66116333 C-75.98670446 69.68386117 -78.18471734 68.70527665 -80.38256836 67.72631836 C-95.36744478 61.05401192 -110.39646088 54.48322126 -125.43359375 47.9296875 C-122.30333635 44.53910118 -118.5796313 42.92934265 -114.4375 41.04296875 C-113.62954987 40.66896439 -112.82159973 40.29496002 -111.98916626 39.90962219 C-109.32790314 38.68029981 -106.6621678 37.46103698 -103.99609375 36.2421875 C-102.13763343 35.38686721 -100.27931799 34.53123205 -98.42114258 33.67529297 C-85.06434356 27.53570574 -71.64669907 21.5370477 -58.19775391 15.60253906 C-47.34225915 10.80804279 -36.56133328 5.86763158 -25.8190918 0.82470703 C-24.75215088 0.32438965 -23.68520996 -0.17592773 -22.5859375 -0.69140625 C-21.65773193 -1.1289624 -20.72952637 -1.56651855 -19.77319336 -2.01733398 C-12.57843585 -5.25546287 -6.88745434 -3.15039754 0 0 Z " fill="#D35DFF" transform="translate(268.43359375,138.0703125)"/>
</svg>
